<?xml version="1.0" encoding="utf-8"?>
<!-- Generator: Adobe Illustrator 17.0.0, SVG Export Plug-In . SVG Version: 6.00 Build 0)  -->
<!DOCTYPE svg PUBLIC "-//W3C//DTD SVG 1.1//EN" "http://www.w3.org/Graphics/SVG/1.1/DTD/svg11.dtd">
<svg version="1.1" id="Capa_1" xmlns="http://www.w3.org/2000/svg" xmlns:xlink="http://www.w3.org/1999/xlink" x="0px" y="0px"
	 width="1920px" height="1080px" viewBox="0 0 1920 1080" enable-background="new 0 0 1920 1080" xml:space="preserve">
<g display="none">
	<g id="news" display="inline">
		<path fill="#FFFFFF" d="M1398.75,0h-742.5C600.326,0,555,45.292,555,101.25v67.5h-33.75C465.326,168.75,420,214.042,420,270v675
			c0,74.554,60.446,135,135,135h810c74.554,0,135-60.446,135-135V101.25C1500,45.292,1454.64,0,1398.75,0z M1432.5,945
			c0,37.192-30.308,67.5-67.5,67.5H555c-37.227,0-67.5-30.308-67.5-67.5V270c0-18.63,15.12-33.75,33.75-33.75H555v675
			c0,18.664,15.086,33.75,33.75,33.75s33.75-15.086,33.75-33.75v-810c0-18.63,15.12-33.75,33.75-33.75h742.5
			c18.596,0,33.75,15.12,33.75,33.75V945z"/>
		<path fill="#FFFFFF" d="M1078.058,438.919h270c9.349,0,16.875-7.561,16.875-16.875c0-9.315-7.526-16.875-16.875-16.875h-270
			c-9.281,0-16.875,7.56-16.875,16.875C1061.183,431.358,1068.776,438.919,1078.058,438.919z"/>
		<path fill="#FFFFFF" d="M1078.058,337.669h270c9.349,0,16.875-7.561,16.875-16.875c0-9.315-7.526-16.875-16.875-16.875h-270
			c-9.281,0-16.875,7.56-16.875,16.875C1061.183,330.108,1068.776,337.669,1078.058,337.669z"/>
		<path fill="#FFFFFF" d="M1078.058,236.419h270c9.349,0,16.875-7.56,16.875-16.875s-7.526-16.875-16.875-16.875h-270
			c-9.281,0-16.875,7.56-16.875,16.875C1061.183,228.859,1068.776,236.419,1078.058,236.419z"/>
		<path fill="#FFFFFF" d="M976.875,911.385h-270c-9.314,0-16.875,7.594-16.875,16.875c0,9.349,7.561,16.875,16.875,16.875h270
			c9.281,0,16.875-7.526,16.875-16.875C993.75,918.979,986.189,911.385,976.875,911.385z"/>
		<path fill="#FFFFFF" d="M976.875,810.135h-270c-9.314,0-16.875,7.594-16.875,16.875c0,9.349,7.561,16.875,16.875,16.875h270
			c9.281,0,16.875-7.526,16.875-16.875C993.75,817.729,986.189,810.135,976.875,810.135z"/>
		<path fill="#FFFFFF" d="M976.875,708.885h-270c-9.314,0-16.875,7.594-16.875,16.875c0,9.349,7.561,16.875,16.875,16.875h270
			c9.281,0,16.875-7.526,16.875-16.875C993.75,716.479,986.189,708.885,976.875,708.885z"/>
		<path fill="#FFFFFF" d="M1348.125,911.385h-270c-9.349,0-16.875,7.594-16.875,16.875c0,9.349,7.526,16.875,16.875,16.875h270
			c9.281,0,16.875-7.526,16.875-16.875C1365,918.979,1357.406,911.385,1348.125,911.385z"/>
		<path fill="#FFFFFF" d="M1348.125,810.135h-270c-9.349,0-16.875,7.594-16.875,16.875c0,9.349,7.526,16.875,16.875,16.875h270
			c9.281,0,16.875-7.526,16.875-16.875C1365,817.729,1357.406,810.135,1348.125,810.135z"/>
		<path fill="#FFFFFF" d="M1348.125,708.885h-270c-9.349,0-16.875,7.594-16.875,16.875c0,9.349,7.526,16.875,16.875,16.875h270
			c9.281,0,16.875-7.526,16.875-16.875C1365,716.479,1357.406,708.885,1348.125,708.885z"/>
		<path fill="#FFFFFF" d="M1348.125,506.385h-641.25c-9.314,0-16.875,7.561-16.875,16.875c0,9.315,7.561,16.875,16.875,16.875
			h641.25c9.281,0,16.875-7.56,16.875-16.875S1357.406,506.385,1348.125,506.385z"/>
		<path fill="#FFFFFF" d="M1348.125,607.635h-641.25c-9.314,0-16.875,7.594-16.875,16.875c0,9.349,7.561,16.875,16.875,16.875
			h641.25c9.281,0,16.875-7.526,16.875-16.875C1365,615.229,1357.406,607.635,1348.125,607.635z"/>
		<path fill="#E03C31" d="M723.75,438.75H960c18.664,0,33.75-15.086,33.75-33.75V168.885c0-18.664-15.086-33.75-33.75-33.75H723.75
			c-18.664,0-33.75,15.086-33.75,33.75V405C690,423.63,705.086,438.75,723.75,438.75z M757.5,202.5h168.75v168.75H757.5V202.5z"/>
	</g>
</g>
<g>
	<path fill="#FFFFFF" d="M690.143,399.139c0-9.529,7.74-17.274,17.274-17.274h411.649c9.546,0,17.269,7.74,17.269,17.274
		c0,9.546-7.729,17.274-17.269,17.274H707.417C697.888,416.408,690.143,408.718,690.143,399.139z M707.417,566.125h411.649
		c9.546,0,17.269-7.756,17.269-17.269c0-9.479-7.729-17.274-17.269-17.274H707.417c-9.529,0-17.274,7.729-17.274,17.274
		S697.888,566.125,707.417,566.125z M885.416,681.226H707.45c-9.529,0-17.274,7.789-17.274,17.269
		c0,9.584,7.74,17.274,17.274,17.274h177.966c9.551,0,17.274-7.69,17.274-17.274C902.69,688.955,894.967,681.226,885.416,681.226z
		 M862.38,830.943H707.45c-9.529,0-17.274,7.729-17.274,17.274c0,9.512,7.74,17.269,17.274,17.269h154.93
		c9.546,0,17.274-7.756,17.274-17.269C879.649,838.666,871.926,830.943,862.38,830.943z M1350.278,851.048
		c0,119.861-97.423,217.323-217.318,217.323c-56.033,0-106.975-21.451-145.567-56.404c-0.033,0-0.1,0.072-0.166,0.072H586.996
		c-9.546,0-17.274-7.795-17.274-17.274V186.83c0-9.535,7.729-17.274,17.274-17.274h145.872v-47.462
		c0-9.529,7.74-17.269,17.274-17.269h70.792c0-0.271,0-0.587,0-0.859c0-50.93,41.446-92.338,92.365-92.338
		c50.925,0,92.349,41.407,92.349,92.332c0,0.271,0,0.587,0,0.859h70.77c9.518,0,17.274,7.74,17.274,17.269v47.462h145.833
		c9.551,0,17.269,7.74,17.269,17.274V672.65C1313.242,711.958,1350.278,777.237,1350.278,851.048z M767.411,223.971h291.705v-84.576
		h-73.241c-5.28,0-10.355-2.443-13.645-6.665c-3.291-4.222-4.421-9.695-3.108-14.842c1.346-5.296,1.961-9.684,1.961-13.9
		c0-31.878-25.944-57.789-57.822-57.789c-31.878,0-57.822,25.911-57.822,57.789c0,4.216,0.626,8.77,1.922,13.967
		c1.28,5.141,0.116,10.626-3.136,14.809c-3.235,4.183-8.283,6.626-13.612,6.626h-73.202V223.971z M604.27,977.419h352.242
		c-25.623-35.623-40.903-79.207-40.903-126.376c0-119.822,97.495-217.384,217.318-217.384c31.812,0,61.978,7.086,89.263,19.402
		V204.065h-128.565v37.108c0,9.529-7.756,17.269-17.269,17.269H750.109c-9.529,0-17.274-7.74-17.274-17.269v-37.108H604.237
		L604.27,977.419L604.27,977.419z M1315.741,851.048c0-100.792-82.011-182.841-182.775-182.841
		c-100.764,0-182.775,82.044-182.775,182.841c0,100.803,82.011,182.78,182.775,182.78
		C1233.73,1033.829,1315.741,951.851,1315.741,851.048z"/>
	<rect id="_x3C_Slice_x3E_" x="1008.334" y="778.128" fill="none" width="250" height="188"/>
	<path fill="#E03C31" d="M1213.77,782.947l-105.794,101.445l-71.584-57.213c-7.457-5.934-18.288-4.726-24.288,2.698
		c-5.939,7.49-4.726,18.283,2.693,24.288l83.396,66.725c3.169,2.499,6.986,3.712,10.792,3.712c4.316,0,8.643-1.618,11.944-4.82
		l116.687-111.9c6.842-6.543,7.114-17.573,0.504-24.421C1231.516,776.51,1220.618,776.371,1213.77,782.947z"/>
</g>
</svg>
