<?xml version="1.0" encoding="utf-8"?>
<!-- Generator: Adobe Illustrator 22.1.0, SVG Export Plug-In . SVG Version: 6.00 Build 0)  -->
<svg version="1.1" id="Layer_1" xmlns="http://www.w3.org/2000/svg" xmlns:xlink="http://www.w3.org/1999/xlink" x="0px" y="0px"
	 viewBox="0 0 1920 1080" style="enable-background:new 0 0 1920 1080;" xml:space="preserve">
<style type="text/css">
	.st0{display:none;}
	.st1{display:inline;}
	.st2{fill:#E03C31;}
	.st3{fill:#FFFFFF;}
</style>
<g class="st0">
	<g class="st1">
		<path id="XMLID_163_" class="st2" d="M651.4,640.8H549.9c-27.6,0-50.2-22.6-50.2-50V489.2c0-27.6,22.6-50.2,50-50.2h101.5
			c27.6,0,50.2,22.6,50.2,50v101.5C701.6,618.2,679,640.8,651.4,640.8z"/>
		<g id="XMLID_155_">
			<path class="st3" d="M600.7,675.6L600.7,675.6c-74.7,0-135.6-60.8-135.8-135.6c0-36,14.2-70.1,39.8-95.7
				c25.7-25.7,59.7-39.8,95.7-39.8c74.7,0,135.6,60.8,135.8,135.6c0,36-14.2,70.1-39.8,95.7C670.8,661.4,636.7,675.6,600.7,675.6z
				 M600.7,444.5c-25.4,0-49.3,10-67.4,28.1c-18.1,18.1-28.1,42-28.1,67.4c0,52.6,42.9,95.5,95.5,95.5v20.1v-20.1
				c25.4,0,49.3-10,67.4-28.1c18.1-18.1,28.1-42,28.1-67.4C696.2,487.4,653.3,444.5,600.7,444.5z"/>
		</g>
		<path class="st3" d="M600.2,271.1C600.2,271.1,600.4,271.1,600.2,271.1c36.3,0,70.3-14.2,96-39.8s39.8-59.7,39.8-95.8
			C736,60.8,675.2,0,600.2,0c-36,0-70.1,14.2-95.7,39.8c-25.7,25.7-39.8,59.7-39.8,95.7C464.7,210.3,525.5,271.1,600.2,271.1z
			 M532.8,68.1C550.9,50,574.8,40,600.2,40c52.6,0,95.5,42.9,95.5,95.5c0,25.4-10,49.3-28.1,67.4s-42,28.1-67.4,28.1v20.1v-20.1
			c-52.6,0-95.5-42.9-95.5-95.5C504.7,110.1,514.6,86.2,532.8,68.1z"/>
		<path class="st3" d="M600.9,808.9c-36,0-70.1,14.2-95.8,39.8c-25.6,25.7-39.8,59.7-39.8,95.7c0,74.7,60.8,135.6,135.6,135.6l0,0
			c74.7,0,135.6-61,135.6-135.8C736.4,869.7,675.6,808.9,600.9,808.9z M601.1,1040v20.1V1040c-52.6,0-95.5-42.9-95.5-95.5
			c0-25.4,10-49.3,28.1-67.4s42-28.1,67.4-28.1c52.6,0,95.5,42.9,95.5,95.5C696.4,997.1,653.7,1040,601.1,1040z"/>
		<path class="st3" d="M1455.3,127.6c0-11.1-9.1-20.1-20.1-20.1l0,0L885,107.9c-11.1,0-20.1,9.1-20.1,20.1
			c0,11.1,9.1,20.1,20.1,20.1l0,0l550.2-0.4C1446.3,147.5,1455.3,138.6,1455.3,127.6z"/>
		<path class="st3" d="M857.8,539.8c0,5.3,2.2,10.4,5.7,14.2c3.8,3.8,8.8,6,14.2,6c5.3,0,10.4-2.2,14.2-6c3.8-3.8,6-8.8,6-14.2
			c0-5.3-2.2-10.4-6-14.2c-3.8-3.8-8.8-6-14.2-6s-10.4,2.2-14.2,6C860,529.4,857.8,534.5,857.8,539.8z"/>
		<path class="st3" d="M966.6,539.8c0-11.1-8.8-20.1-20.1-20.1c-11.1,0-20.1,9.1-19.9,20.1c0,11.1,8.8,20.1,20.1,20.1
			C957.8,559.7,966.9,550.8,966.6,539.8z"/>
		<path class="st3" d="M1035.4,539.6c0-11.1-8.8-19.9-20.1-19.9c-11.1,0-20.1,9.1-20.1,20.1c0,11.1,9.1,20.1,20.1,20.1
			C1026.6,559.7,1035.6,550.8,1035.4,539.6z"/>
		<path class="st3" d="M1379.5,539.3c0-11.1-9.1-20.1-20.1-20.1s-19.9,9.1-19.9,20.1s9.1,20.1,20.1,20.1
			C1370.4,559.5,1379.5,550.4,1379.5,539.3z"/>
		<path class="st3" d="M1241.9,539.6c0-11.1-9.1-20.1-20.1-20.1s-19.9,9.1-19.9,20.1s8.8,19.9,20.1,19.9
			C1232.9,559.5,1241.9,550.6,1241.9,539.6z"/>
		<path class="st3" d="M1173.2,539.6c0-11.1-9.1-20.1-20.1-20.1s-19.9,9.1-19.9,20.1s8.8,19.9,20.1,19.9
			C1164.1,559.7,1173.2,550.6,1173.2,539.6z"/>
		<path class="st3" d="M1310.7,539.6c0-11.1-9.1-20.1-20.1-20.1s-19.9,9.1-19.9,20.1s9.1,20.1,20.1,20.1
			C1301.6,559.5,1310.7,550.6,1310.7,539.6z"/>
		<path class="st3" d="M1104.4,539.6c0-11.1-9.1-20.1-20.1-19.9c-11.1,0-20.1,8.8-19.9,20.1c0,11.1,8.8,20.1,20.1,19.9
			C1095.3,559.7,1104.4,550.6,1104.4,539.6z"/>
		<path class="st3" d="M1442.3,553.5c3.8-3.8,6-8.8,6-14.2c0-5.3-2.2-10.4-6-14.2c-3.8-3.8-8.8-6-14.2-6c-5.3,0-10.4,2.2-14.2,6
			c-3.8,3.8-6,8.8-6,14.2s2.2,10.4,6,14.2c3.8,3.8,8.8,6,14.2,6C1433.4,559.5,1438.5,557.2,1442.3,553.5z"/>
		<path class="st3" d="M858.3,944.2c0,11.1,9.1,20.1,20.1,20.1l0,0l550.2-0.4c11.1,0,20.1-9.1,20.1-20.1c0-11.1-9.1-20.1-20.1-20.1
			l0,0l-550.4,0.7C867.1,924.3,858.3,933.2,858.3,944.2z"/>
	</g>
</g>
<g>
	<g>
		<path class="st3" d="M729.9,251V101.8c0-32.2-26.3-58.7-58.6-58.7H522.1c-32.2,0-58.6,26.4-58.6,58.7V251
			c0,32.2,26.4,58.7,58.6,58.7h149.2C703.6,309.7,729.9,283.2,729.9,251z"/>
		<path class="st3" d="M1061.3,251V101.8c0-32.2-26.3-58.7-58.6-58.7H853.6c-32.2,0-58.7,26.4-58.7,58.7V251
			c0,32.2,26.4,58.7,58.7,58.7h149.1C1035,309.7,1061.3,283.2,1061.3,251z"/>
		<path class="st3" d="M1390.9,249.2V100c0-32.3-26.3-58.7-58.6-58.7h-149.2c-32.2,0-58.6,26.4-58.6,58.7v149.2
			c0,32.2,26.4,58.7,58.6,58.7h149.2C1364.6,307.9,1390.9,281.4,1390.9,249.2z"/>
		<path class="st3" d="M728.1,580.8V431.6c0-32.3-26.3-58.7-58.6-58.7H520.3c-32.2,0-58.6,26.4-58.6,58.7v149.2
			c0,32.1,26.4,58.7,58.6,58.7h149.2C701.8,639.5,728.1,612.9,728.1,580.8z"/>
		<path class="st3" d="M1059.5,580.8V431.6c0-32.3-26.3-58.7-58.6-58.7H851.8c-32.2,0-58.7,26.4-58.7,58.7v149.2
			c0,32.1,26.4,58.7,58.7,58.7h149.1C1033.2,639.5,1059.5,612.9,1059.5,580.8z"/>
		<path class="st3" d="M1390.9,580.8V431.6c0-32.3-26.3-58.7-58.6-58.7h-149.2c-32.2,0-58.6,26.4-58.6,58.7v149.2
			c0,32.1,26.4,58.7,58.6,58.7h149.2C1364.6,639.5,1390.9,612.9,1390.9,580.8z"/>
		<path class="st3" d="M728.1,912.4V763.2c0-32.2-26.3-58.7-58.6-58.7H520.3c-32.2,0-58.6,26.4-58.6,58.7v149.2
			c0,32.2,26.4,58.7,58.6,58.7h149.2C701.8,971.1,728.1,944.5,728.1,912.4z"/>
		<path class="st3" d="M1059.5,912.4V763.2c0-32.2-26.3-58.7-58.6-58.7H851.8c-32.2,0-58.7,26.4-58.7,58.7v149.2
			c0,32.2,26.4,58.7,58.7,58.7h149.1C1033.2,971.1,1059.5,944.5,1059.5,912.4z"/>
		<path class="st2" d="M1456,977.4V828.2c0-32.2-26.3-58.7-58.6-58.7h-149.1c-32.2,0-58.7,26.4-58.7,58.7v149.2
			c0,32.2,26.5,58.7,58.7,58.7h149.1C1429.7,1036.1,1456,1009.6,1456,977.4z"/>
	</g>
</g>
</svg>
