<?xml version="1.0" encoding="utf-8"?>
<!-- Generator: Adobe Illustrator 16.0.0, SVG Export Plug-In . SVG Version: 6.00 Build 0)  -->
<!DOCTYPE svg PUBLIC "-//W3C//DTD SVG 1.1//EN" "http://www.w3.org/Graphics/SVG/1.1/DTD/svg11.dtd">
<svg version="1.1" id="Layer_1" xmlns="http://www.w3.org/2000/svg" xmlns:xlink="http://www.w3.org/1999/xlink" x="0px" y="0px"
	 width="1920px" height="1080px" viewBox="0 0 1920 1080" enable-background="new 0 0 1920 1080" xml:space="preserve">
<g>
	<g>
		<path id="XMLID_163_" fill="#E03C31" d="M651.424,640.764h-101.55c-27.607,0-50.195-22.588-50.195-50.003v-101.55
			c0-27.608,22.588-50.196,50.002-50.196h101.55c27.607,0,50.196,22.588,50.196,50.003v101.55
			C701.62,618.176,679.032,640.764,651.424,640.764z"/>
		<g id="XMLID_155_">
			<path fill="#FFFFFF" d="M600.663,675.553L600.663,675.553c-74.741,0-135.553-60.811-135.773-135.553
				c0-36.044,14.152-70.099,39.804-95.749c25.65-25.651,59.705-39.804,95.749-39.804c74.742,0,135.553,60.811,135.773,135.553
				c0,36.044-14.151,70.099-39.803,95.749C670.762,661.4,636.708,675.553,600.663,675.553z M600.663,444.472
				c-25.43,0-49.312,9.951-67.444,28.084c-18.133,18.132-28.084,42.015-28.084,67.444c0,52.629,42.899,95.528,95.528,95.528v20.123
				v-20.123c25.431,0,49.313-9.951,67.445-28.084c18.132-18.132,28.083-42.015,28.083-67.444
				C696.191,487.371,653.292,444.472,600.663,444.472z"/>
		</g>
		<path fill="#FFFFFF" d="M600.221,271.105C600.221,271.105,600.442,271.105,600.221,271.105c36.266,0,70.32-14.152,95.971-39.803
			c25.651-25.651,39.804-59.705,39.804-95.75C735.995,60.811,675.185,0,600.221,0c-36.044,0-70.098,14.152-95.749,39.804
			c-25.651,25.651-39.804,59.705-39.804,95.749C464.668,210.295,525.479,271.105,600.221,271.105z M532.776,68.108
			c18.133-18.132,42.015-28.083,67.444-28.083c52.629,0,95.528,42.899,95.528,95.528c0,25.43-9.95,49.312-28.083,67.445
			s-42.015,28.083-67.445,28.083v20.123v-20.123c-52.629,0-95.527-42.899-95.527-95.528
			C504.693,110.123,514.644,86.241,532.776,68.108z"/>
		<path fill="#FFFFFF" d="M600.885,808.895c-36.045,0-70.099,14.152-95.75,39.804c-25.65,25.65-39.803,59.705-39.803,95.749
			c0,74.742,60.811,135.553,135.553,135.553l0,0c74.742,0,135.553-61.032,135.553-135.774
			C736.438,869.705,675.627,808.895,600.885,808.895z M601.105,1039.976v20.123V1039.976c-52.629,0-95.528-42.899-95.528-95.528
			c0-25.43,9.951-49.313,28.084-67.445c18.133-18.132,42.015-28.083,67.444-28.083c52.629,0,95.528,42.899,95.528,95.528
			C696.413,997.076,653.734,1039.976,601.105,1039.976z"/>
		<path fill="#FFFFFF" d="M1455.332,127.592c0-11.057-9.066-20.123-20.123-20.123l0,0l-550.172,0.442
			c-11.057,0-20.123,9.066-20.123,20.123c0,11.057,9.066,20.123,20.123,20.123l0,0l550.172-0.442
			C1446.266,147.494,1455.332,138.648,1455.332,127.592z"/>
		<path fill="#FFFFFF" d="M857.838,539.779c0,5.307,2.211,10.393,5.749,14.152c3.76,3.759,8.846,5.97,14.152,5.97
			c5.308,0,10.394-2.211,14.152-5.97c3.76-3.76,5.971-8.846,5.971-14.152c0-5.308-2.211-10.394-5.971-14.152
			c-3.759-3.76-8.845-5.971-14.152-5.971c-5.307,0-10.393,2.211-14.152,5.971C860.049,529.386,857.838,534.472,857.838,539.779z"/>
		<path fill="#FFFFFF" d="M966.634,539.779c0-11.057-8.845-20.123-20.123-20.123c-11.056,0-20.122,9.066-19.901,20.123
			c0,11.056,8.846,20.122,20.123,20.122C957.789,559.681,966.855,550.835,966.634,539.779z"/>
		<path fill="#FFFFFF" d="M1035.405,539.558c0-11.057-8.845-19.901-20.123-19.901c-11.056,0-20.122,9.066-20.122,20.123
			c0,11.056,9.066,20.122,20.122,20.122C1026.561,559.681,1035.627,550.835,1035.405,539.558z"/>
		<path fill="#FFFFFF" d="M1379.484,539.337c0-11.057-9.066-20.123-20.123-20.123s-19.902,9.066-19.902,20.123
			s9.066,20.122,20.123,20.122C1370.418,559.459,1379.484,550.394,1379.484,539.337z"/>
		<path fill="#FFFFFF" d="M1241.941,539.558c0-11.057-9.066-20.123-20.123-20.123s-19.902,9.066-19.902,20.123
			s8.846,19.901,20.123,19.901C1232.875,559.459,1241.941,550.614,1241.941,539.558z"/>
		<path fill="#FFFFFF" d="M1173.17,539.558c0-11.057-9.066-20.123-20.123-20.123s-19.902,9.066-19.902,20.123
			s8.846,19.901,20.123,19.901C1164.104,559.681,1173.17,550.614,1173.17,539.558z"/>
		<path fill="#FFFFFF" d="M1310.713,539.558c0-11.057-9.066-20.123-20.123-20.123s-19.902,9.066-19.902,20.123
			s9.066,20.123,20.123,20.123C1301.646,559.459,1310.713,550.614,1310.713,539.558z"/>
		<path fill="#FFFFFF" d="M1104.398,539.558c0-11.057-9.066-20.123-20.123-19.901c-11.057,0-20.123,8.845-19.902,20.123
			c0,11.056,8.846,20.122,20.123,19.901C1095.332,559.681,1104.398,550.614,1104.398,539.558z"/>
		<path fill="#FFFFFF" d="M1442.285,553.489c3.759-3.76,5.971-8.846,5.971-14.152c0-5.308-2.212-10.394-5.971-14.152
			c-3.76-3.76-8.846-5.971-14.152-5.971c-5.308,0-10.394,2.211-14.152,5.971c-3.76,3.759-5.971,8.845-5.971,14.152
			c0,5.307,2.211,10.393,5.971,14.152c3.759,3.759,8.845,5.97,14.152,5.97C1433.439,559.459,1438.525,557.248,1442.285,553.489z"/>
		<path fill="#FFFFFF" d="M858.28,944.227c0,11.056,9.066,20.122,20.123,20.122l0,0l550.172-0.442
			c11.057,0,20.123-9.066,20.123-20.122c0-11.057-9.066-20.123-20.123-20.123l0,0l-550.394,0.663
			C867.125,924.324,858.28,933.17,858.28,944.227z"/>
	</g>
</g>
</svg>
