<?xml version="1.0" encoding="utf-8"?>
<!-- Generator: Adobe Illustrator 17.0.0, SVG Export Plug-In . SVG Version: 6.00 Build 0)  -->
<!DOCTYPE svg PUBLIC "-//W3C//DTD SVG 1.1//EN" "http://www.w3.org/Graphics/SVG/1.1/DTD/svg11.dtd">
<svg version="1.1" id="Layer_1" xmlns="http://www.w3.org/2000/svg" xmlns:xlink="http://www.w3.org/1999/xlink" x="0px" y="0px"
	 width="1920px" height="1080px" viewBox="0 0 1920 1080" enable-background="new 0 0 1920 1080" xml:space="preserve">
<g display="none">
	<g display="inline">
		<circle fill="#FFFFFF" cx="788.181" cy="760.909" r="24.544"/>
	</g>
</g>
<g display="none">
	<g display="inline">
		<path fill="#FFFFFF" d="M1475.455,932.728c-14.728,0-24.545,9.819-24.545,24.545v73.636H469.092v-49.091h49.091h883.637
			c14.728,0,24.544-9.819,24.544-24.545V564.545c0-14.728-9.818-24.545-24.544-24.545c-14.728,0-24.545,9.819-24.545,24.545v368.181
			H640.908V589.092h196.364v270c0,14.728,9.819,24.544,24.545,24.544c14.728,0,24.544-9.818,24.544-24.544V564.545
			c0-14.728-9.818-24.545-24.544-24.545H616.363c-14.727,0-24.544,9.819-24.544,24.545v368.181H518.18h-73.636
			C429.819,932.728,420,942.545,420,957.272v98.181c0,14.728,9.819,24.547,24.545,24.547h1030.908
			c14.728,0,24.545-9.819,24.545-24.545v-98.181C1500,942.545,1490.181,932.728,1475.455,932.728z"/>
	</g>
</g>
<g display="none">
	<g display="inline">
		<path fill="#FFFFFF" d="M1426.363,144.819V24.545c0-14.726-9.818-24.545-24.544-24.545H518.181
			c-14.728,0-24.545,9.819-24.545,24.545v144.819l-49.091,193.909c0,2.455,0,4.908,0,4.908c0,44.181,19.636,83.455,49.091,110.455
			v380.456c0,14.728,9.819,24.544,24.545,24.544s24.545-9.818,24.545-24.544V505.636c14.728,7.364,31.908,9.819,49.092,9.819
			c51.544,0,95.728-27,122.728-66.272c27,39.272,71.181,66.272,122.728,66.272c51.545,0,95.728-27,122.728-66.272
			c27,39.272,71.181,66.272,122.728,66.272c51.545,0,95.728-27,122.728-66.272c27,39.272,71.182,66.272,122.728,66.272
			c81,0,147.272-66.272,147.272-147.272c0-2.455,0-2.455,0-4.908L1426.363,144.819z M542.728,49.091h834.545v98.181H542.728V49.091z
			 M1328.181,466.364c-54,0-98.181-44.182-98.181-98.182c0-14.728-9.819-24.544-24.545-24.544h-147.272
			c-14.728,0-24.544,9.818-24.544,24.544s9.818,24.545,24.544,24.545h120.272c-9.818,41.728-49.091,73.637-95.728,73.637
			c-54,0-98.181-44.182-98.181-98.182c0-14.728-9.819-24.544-24.545-24.544H812.729c-14.728,0-24.544,9.818-24.544,24.544
			s9.818,24.545,24.544,24.545H933c-9.819,41.728-49.092,73.637-95.728,73.637c-54,0-98.181-44.182-98.181-98.182
			c0-14.728-9.819-24.544-24.545-24.544H567.272c-14.728,0-24.545,9.818-24.545,24.544s9.819,24.545,24.545,24.545h120.272
			c-9.819,41.728-49.092,73.637-95.728,73.637c-54,0-95.728-41.729-98.182-95.729l44.182-174.272H690V270
			c0,14.728,9.819,24.545,24.545,24.545S739.09,284.726,739.09,270v-73.636h196.363V270c0,14.728,9.819,24.545,24.545,24.545
			s24.545-9.819,24.545-24.545v-73.636h196.363V270c0,14.728,9.819,24.545,24.545,24.545S1230,284.728,1230,270v-73.636h157.092
			L1419,343.636h-115.363c-14.729,0-24.545,9.819-24.545,24.545s9.818,24.545,24.545,24.545h120.271
			C1411.637,434.455,1374.819,466.364,1328.181,466.364z"/>
	</g>
</g>
<g display="none">
	<g display="inline">
		<path fill="#E03C31" d="M1303.637,540H960c-14.728,0-24.545,9.819-24.545,24.545v294.544c0,14.729,9.819,24.545,24.545,24.545
			h343.637c14.727,0,24.544-9.819,24.544-24.545V564.545C1328.181,549.819,1318.363,540,1303.637,540z M1279.092,834.545H984.545
			V589.092h294.545v245.453H1279.092z"/>
	</g>
</g>
<g>
	<g>
		<path fill="#E03C31" d="M-827.601,965.91h-76.284c-15.257,0-25.427,10.172-25.427,25.427c0,15.255,10.172,25.427,25.427,25.427
			h76.284c15.257,0,25.427-10.172,25.427-25.427C-802.174,976.082-812.344,965.91-827.601,965.91z"/>
	</g>
</g>
<g>
	<g>
		<g>
			<path fill="#E03C31" d="M1348.694,791.002c-4.241-11.487-16.986-17.362-28.474-13.124l-230.553,85.071
				c-11.487,4.238-17.362,16.986-13.124,28.474c3.306,8.955,11.781,14.5,20.801,14.5c2.547,0,5.14-0.443,7.673-1.376l230.553-85.071
				C1347.057,815.237,1352.932,802.489,1348.694,791.002z"/>
		</g>
	</g>
	<g>
		<g>
			<path fill="#E03C31" d="M1054.751,899.465c-4.236-11.489-16.986-17.365-28.474-13.126l-9.764,3.602
				c-11.485,4.238-17.362,16.986-13.124,28.471c3.304,8.955,11.781,14.502,20.801,14.502c2.547,0,5.14-0.443,7.673-1.376
				l9.764-3.602C1053.112,923.697,1058.989,910.952,1054.751,899.465z"/>
		</g>
	</g>
	<g>
		<g>
			<path fill="#E03C31" d="M1348.694,700.667c-4.241-11.487-16.986-17.358-28.474-13.124l-182.198,67.228
				c-11.487,4.238-17.362,16.986-13.124,28.474c3.306,8.955,11.781,14.5,20.801,14.5c2.547,0,5.141-0.443,7.673-1.376
				l182.198-67.228C1347.057,724.902,1352.932,712.154,1348.694,700.667z"/>
		</g>
	</g>
	<g>
		<g>
			<path fill="#E03C31" d="M1348.694,611.271c-4.241-11.487-16.986-17.358-28.474-13.124l-182.198,67.228
				c-11.487,4.238-17.362,16.986-13.124,28.474c3.306,8.955,11.781,14.5,20.801,14.5c2.547,0,5.141-0.443,7.673-1.376
				l182.198-67.228C1347.057,635.506,1352.932,622.758,1348.694,611.271z"/>
		</g>
	</g>
	<g>
		<g>
			<path fill="#FFFFFF" d="M1424.244,205.644L889.982,8.512c-4.953-1.826-10.396-1.826-15.347,0L340.373,205.644l-0.004,0.017
				c-1.75,0.648-3.432,1.504-4.997,2.593c-5.949,4.147-9.494,10.939-9.494,18.188v634.256c0,9.283,5.784,17.584,14.493,20.799
				l534.262,197.133c2.491,0.919,5.088,1.369,7.673,1.369c2.61,0,5.208-0.474,7.668-1.382l0.009,0.013l534.262-197.133
				c8.709-3.215,14.493-11.513,14.493-20.799V226.443C1438.738,217.158,1432.954,208.859,1424.244,205.644z M860.14,1026.024
				L370.214,845.25V258.253l99.757,36.811v268.603c0,9.283,5.784,17.584,14.493,20.799l239.419,88.344
				c2.491,0.919,5.088,1.369,7.673,1.369c4.473,0,8.907-1.354,12.678-3.982c5.947-4.145,9.492-10.937,9.492-18.186V399.764
				l106.409,39.263v586.997H860.14z M709.393,383.404v236.793L514.31,548.214V311.42L709.393,383.404z M556.181,279.434
				l175.38-64.713l175.38,64.713l-175.38,64.713L556.181,279.434z M882.308,399.947l-86.944-32.082l183.294-67.634
				c8.709-3.215,14.493-11.513,14.493-20.799s-5.784-17.584-14.493-20.799l-239.421-88.342c-4.954-1.826-10.394-1.826-15.35,0
				L491.9,255.895l-79.813-29.452l470.22-173.502l470.22,173.504L882.308,399.947z M1394.401,845.25l-489.923,180.772V439.027
				l489.923-180.774V845.25z"/>
		</g>
	</g>
</g>
</svg>
