<?xml version="1.0" encoding="utf-8"?>
<!-- Generator: Adobe Illustrator 16.0.0, SVG Export Plug-In . SVG Version: 6.00 Build 0)  -->
<!DOCTYPE svg PUBLIC "-//W3C//DTD SVG 1.1//EN" "http://www.w3.org/Graphics/SVG/1.1/DTD/svg11.dtd">
<svg version="1.1" id="Capa_1" xmlns="http://www.w3.org/2000/svg" xmlns:xlink="http://www.w3.org/1999/xlink" x="0px" y="0px"
	 width="1920px" height="1080px" viewBox="0 0 1920 1080" enable-background="new 0 0 1920 1080" xml:space="preserve">
<g>
	<g id="news">
		<path fill="#FFFFFF" d="M1398.75,0h-742.5C600.326,0,555,45.292,555,101.25v67.5h-33.75C465.326,168.75,420,214.042,420,270v675
			c0,74.554,60.446,135,135,135h810c74.554,0,135-60.446,135-135V101.25C1500,45.292,1454.64,0,1398.75,0z M1432.5,945
			c0,37.192-30.308,67.5-67.5,67.5H555c-37.227,0-67.5-30.308-67.5-67.5V270c0-18.63,15.12-33.75,33.75-33.75H555v675
			c0,18.664,15.086,33.75,33.75,33.75s33.75-15.086,33.75-33.75v-810c0-18.63,15.12-33.75,33.75-33.75h742.5
			c18.596,0,33.75,15.12,33.75,33.75V945z"/>
		<path fill="#FFFFFF" d="M1078.058,438.919h270c9.349,0,16.875-7.561,16.875-16.875c0-9.315-7.526-16.875-16.875-16.875h-270
			c-9.281,0-16.875,7.56-16.875,16.875C1061.183,431.358,1068.776,438.919,1078.058,438.919z"/>
		<path fill="#FFFFFF" d="M1078.058,337.669h270c9.349,0,16.875-7.561,16.875-16.875c0-9.315-7.526-16.875-16.875-16.875h-270
			c-9.281,0-16.875,7.56-16.875,16.875C1061.183,330.108,1068.776,337.669,1078.058,337.669z"/>
		<path fill="#FFFFFF" d="M1078.058,236.419h270c9.349,0,16.875-7.56,16.875-16.875c0-9.315-7.526-16.875-16.875-16.875h-270
			c-9.281,0-16.875,7.56-16.875,16.875C1061.183,228.859,1068.776,236.419,1078.058,236.419z"/>
		<path fill="#FFFFFF" d="M976.875,911.385h-270c-9.314,0-16.875,7.594-16.875,16.875c0,9.349,7.561,16.875,16.875,16.875h270
			c9.281,0,16.875-7.526,16.875-16.875C993.75,918.979,986.189,911.385,976.875,911.385z"/>
		<path fill="#FFFFFF" d="M976.875,810.135h-270c-9.314,0-16.875,7.594-16.875,16.875c0,9.349,7.561,16.875,16.875,16.875h270
			c9.281,0,16.875-7.526,16.875-16.875C993.75,817.729,986.189,810.135,976.875,810.135z"/>
		<path fill="#FFFFFF" d="M976.875,708.885h-270c-9.314,0-16.875,7.594-16.875,16.875c0,9.349,7.561,16.875,16.875,16.875h270
			c9.281,0,16.875-7.526,16.875-16.875C993.75,716.479,986.189,708.885,976.875,708.885z"/>
		<path fill="#FFFFFF" d="M1348.125,911.385h-270c-9.349,0-16.875,7.594-16.875,16.875c0,9.349,7.526,16.875,16.875,16.875h270
			c9.281,0,16.875-7.526,16.875-16.875C1365,918.979,1357.406,911.385,1348.125,911.385z"/>
		<path fill="#FFFFFF" d="M1348.125,810.135h-270c-9.349,0-16.875,7.594-16.875,16.875c0,9.349,7.526,16.875,16.875,16.875h270
			c9.281,0,16.875-7.526,16.875-16.875C1365,817.729,1357.406,810.135,1348.125,810.135z"/>
		<path fill="#FFFFFF" d="M1348.125,708.885h-270c-9.349,0-16.875,7.594-16.875,16.875c0,9.349,7.526,16.875,16.875,16.875h270
			c9.281,0,16.875-7.526,16.875-16.875C1365,716.479,1357.406,708.885,1348.125,708.885z"/>
		<path fill="#FFFFFF" d="M1348.125,506.385h-641.25c-9.314,0-16.875,7.561-16.875,16.875c0,9.315,7.561,16.875,16.875,16.875
			h641.25c9.281,0,16.875-7.56,16.875-16.875C1365,513.945,1357.406,506.385,1348.125,506.385z"/>
		<path fill="#FFFFFF" d="M1348.125,607.635h-641.25c-9.314,0-16.875,7.594-16.875,16.875c0,9.349,7.561,16.875,16.875,16.875
			h641.25c9.281,0,16.875-7.526,16.875-16.875C1365,615.229,1357.406,607.635,1348.125,607.635z"/>
		<path fill="#E03C31" d="M723.75,438.75H960c18.664,0,33.75-15.086,33.75-33.75V168.885c0-18.664-15.086-33.75-33.75-33.75H723.75
			c-18.664,0-33.75,15.086-33.75,33.75V405C690,423.63,705.086,438.75,723.75,438.75z M757.5,202.5h168.75v168.75H757.5V202.5z"/>
	</g>
</g>
</svg>
