<?xml version="1.0" encoding="utf-8"?>
<!-- Generator: Adobe Illustrator 16.0.0, SVG Export Plug-In . SVG Version: 6.00 Build 0)  -->
<!DOCTYPE svg PUBLIC "-//W3C//DTD SVG 1.1//EN" "http://www.w3.org/Graphics/SVG/1.1/DTD/svg11.dtd">
<svg version="1.1" id="Layer_1" xmlns="http://www.w3.org/2000/svg" xmlns:xlink="http://www.w3.org/1999/xlink" x="0px" y="0px"
	 width="1920px" height="1080px" viewBox="0 0 1920 1080" enable-background="new 0 0 1920 1080" xml:space="preserve">
<g>
	<g>
		<circle fill="#FFFFFF" cx="788.181" cy="760.909" r="24.544"/>
	</g>
</g>
<g>
	<g>
		<path fill="#FFFFFF" d="M1475.455,932.728c-14.728,0-24.545,9.819-24.545,24.545v73.636H469.092v-49.091h49.091h883.637
			c14.728,0,24.544-9.819,24.544-24.545V564.545c0-14.728-9.818-24.545-24.544-24.545c-14.728,0-24.545,9.819-24.545,24.545v368.181
			H640.908V589.092h196.364v270c0,14.728,9.819,24.544,24.545,24.544c14.728,0,24.544-9.818,24.544-24.544V564.545
			c0-14.728-9.818-24.545-24.544-24.545H616.363c-14.727,0-24.544,9.819-24.544,24.545v368.181h-73.639h-73.636
			C429.819,932.728,420,942.545,420,957.272v98.181c0,14.728,9.819,24.547,24.545,24.547h1030.908
			c14.728,0,24.545-9.819,24.545-24.545v-98.181C1500,942.545,1490.181,932.728,1475.455,932.728z"/>
	</g>
</g>
<g>
	<g>
		<path fill="#FFFFFF" d="M1426.363,144.819V24.545c0-14.726-9.818-24.545-24.544-24.545H518.181
			c-14.728,0-24.545,9.819-24.545,24.545v144.819l-49.091,193.909c0,2.455,0,4.908,0,4.908c0,44.181,19.636,83.455,49.091,110.455
			v380.456c0,14.728,9.819,24.544,24.545,24.544s24.545-9.818,24.545-24.544V505.636c14.728,7.364,31.908,9.819,49.092,9.819
			c51.544,0,95.728-27,122.728-66.272c27,39.272,71.181,66.272,122.728,66.272c51.545,0,95.728-27,122.728-66.272
			c27,39.272,71.181,66.272,122.728,66.272c51.545,0,95.728-27,122.728-66.272c27,39.272,71.182,66.272,122.728,66.272
			c81,0,147.272-66.272,147.272-147.272c0-2.455,0-2.455,0-4.908L1426.363,144.819z M542.728,49.091h834.545v98.181H542.728V49.091z
			 M1328.181,466.364c-54,0-98.181-44.182-98.181-98.182c0-14.728-9.819-24.544-24.545-24.544h-147.272
			c-14.728,0-24.544,9.818-24.544,24.544s9.818,24.545,24.544,24.545h120.272c-9.818,41.728-49.091,73.637-95.728,73.637
			c-54,0-98.181-44.182-98.181-98.182c0-14.728-9.819-24.544-24.545-24.544H812.729c-14.728,0-24.544,9.818-24.544,24.544
			s9.818,24.545,24.544,24.545H933c-9.819,41.728-49.092,73.637-95.728,73.637c-54,0-98.181-44.182-98.181-98.182
			c0-14.728-9.819-24.544-24.545-24.544H567.272c-14.728,0-24.545,9.818-24.545,24.544s9.819,24.545,24.545,24.545h120.272
			c-9.819,41.728-49.092,73.637-95.728,73.637c-54,0-95.728-41.729-98.182-95.729l44.182-174.272H690V270
			c0,14.728,9.819,24.545,24.545,24.545S739.09,284.726,739.09,270v-73.636h196.363V270c0,14.728,9.819,24.545,24.545,24.545
			s24.545-9.819,24.545-24.545v-73.636h196.363V270c0,14.728,9.819,24.545,24.545,24.545S1230,284.728,1230,270v-73.636h157.092
			L1419,343.636h-115.363c-14.729,0-24.545,9.819-24.545,24.545s9.818,24.545,24.545,24.545h120.271
			C1411.637,434.455,1374.819,466.364,1328.181,466.364z"/>
	</g>
</g>
<g>
	<g>
		<path fill="#E03C31" d="M1303.637,540H960c-14.728,0-24.545,9.819-24.545,24.545v294.544c0,14.729,9.819,24.545,24.545,24.545
			h343.637c14.727,0,24.544-9.819,24.544-24.545V564.545C1328.181,549.819,1318.363,540,1303.637,540z M1279.092,834.545H984.545
			V589.092h294.545v245.453H1279.092z"/>
	</g>
</g>
</svg>
