<?xml version="1.0" encoding="utf-8"?>
<!-- Generator: Adobe Illustrator 17.0.0, SVG Export Plug-In . SVG Version: 6.00 Build 0)  -->
<!DOCTYPE svg PUBLIC "-//W3C//DTD SVG 1.1//EN" "http://www.w3.org/Graphics/SVG/1.1/DTD/svg11.dtd">
<svg version="1.1" id="Capa_1" xmlns="http://www.w3.org/2000/svg" xmlns:xlink="http://www.w3.org/1999/xlink" x="0px" y="0px"
	 width="1920px" height="1080px" viewBox="0 0 1920 1080" enable-background="new 0 0 1920 1080" xml:space="preserve">
<g display="none">
	<path display="inline" fill="#FFFFFF" d="M1444.4,420h-101.04c-16.24,0-29.62-8.94-35.841-23.94c-6.22-15-3.06-30.8,8.4-42.279
		l71.439-71.42c10.501-10.5,16.28-24.48,16.28-39.32c0-14.86-5.78-28.82-16.28-39.34l-91.06-91.06c-21-21-57.62-21.04-78.66,0
		l-71.42,71.42c-11.479,11.46-27.319,14.66-42.28,8.42c-15-6.22-23.939-19.6-23.939-35.84V55.6c0-30.66-24.939-55.6-55.6-55.6H895.6
		C864.939,0,840,24.94,840,55.6v101.04c0,16.24-8.939,29.62-23.939,35.84c-14.961,6.26-30.801,3.04-42.28-8.42l-71.42-71.42
		c-21.04-21.04-57.66-21-78.66,0L532.64,203.7c-10.5,10.5-16.279,24.48-16.279,39.34c0,14.84,5.779,28.8,16.279,39.32l71.44,71.42
		c11.46,11.479,14.6,27.279,8.4,42.279c-6.2,15-19.601,23.94-35.841,23.94H475.6c-30.659,0-55.6,24.94-55.6,55.6v128.78
		c0,30.68,24.94,55.62,55.6,55.62h101.04c16.24,0,29.62,8.939,35.841,23.939c6.22,15,3.06,30.801-8.4,42.28l-71.44,71.42
		c-10.5,10.5-16.279,24.48-16.279,39.32c0,14.86,5.779,28.82,16.279,39.34L623.7,967.36c21.02,21.02,57.62,21.06,78.66,0
		l71.42-71.44c11.479-11.46,27.26-14.62,42.28-8.4c15,6.221,23.939,19.601,23.939,35.841v101.04c0,30.66,24.939,55.6,55.6,55.6
		h128.78c30.66,0,55.601-24.94,55.601-55.6V923.36c0-16.24,8.939-29.62,23.939-35.841c15.02-6.239,30.8-3.06,42.28,8.4l71.42,71.44
		c21.04,21.04,57.66,21,78.66,0l91.06-91.061c10.5-10.5,16.28-24.479,16.28-39.34c0-14.84-5.78-28.8-16.28-39.32l-71.439-71.42
		c-11.461-11.479-14.601-27.28-8.4-42.28S1327.12,660,1343.36,660h101.04c30.66,0,55.6-24.94,55.6-55.6V475.6
		C1500,444.94,1475.06,420,1444.4,420z M1460,604.4c0,8.6-7,15.6-15.6,15.6h-101.04c-32.48,0-60.38,18.64-72.8,48.64
		c-12.44,30-5.9,62.92,17.079,85.88l71.44,71.42c6.1,6.101,6.1,16,0,22.08l-91.061,91.061c-6.08,6.08-15.979,6.12-22.08,0
		l-71.42-71.44c-22.979-22.979-55.88-29.479-85.88-17.08c-30,12.421-48.64,40.32-48.64,72.801v101.04c0,8.6-7,15.6-15.6,15.6H895.6
		c-8.6,0-15.6-7-15.6-15.6V923.36c0-32.48-18.64-60.38-48.64-72.801c-10.061-4.18-20.421-6.22-30.66-6.22
		c-20.28,0-39.94,8-55.22,23.28l-71.42,71.439c-6.121,6.12-16.021,6.08-22.08,0L560.92,848c-6.1-6.1-6.1-16,0-22.08l71.44-71.42
		c22.96-22.96,29.52-55.88,17.079-85.88C637.02,638.64,609.12,620,576.64,620H475.6c-8.6,0-15.6-7-15.6-15.6V475.6
		c0-8.6,7-15.6,15.6-15.6h101.04c32.48,0,60.38-18.64,72.8-48.64c12.44-30,5.9-62.92-17.079-85.88l-71.44-71.42
		c-6.1-6.1-6.1-16,0-22.08l91.061-91.06c6.08-6.1,15.979-6.1,22.08,0l71.42,71.42c22.939,22.94,55.84,29.52,85.88,17.08
		c30-12.4,48.64-40.3,48.64-72.78V55.6c0-8.6,7-15.6,15.6-15.6h128.78c8.62,0,15.62,7,15.62,15.6v101.04
		c0,32.48,18.64,60.38,48.64,72.8c30.04,12.44,62.921,5.88,85.88-17.08l71.42-71.42c6.12-6.1,16.021-6.1,22.08,0L1359.08,232
		c6.1,6.1,6.1,16,0,22.08l-71.44,71.42c-22.96,22.96-29.52,55.88-17.079,85.88c12.42,30,40.319,48.64,72.8,48.64h101.04
		C1453,460,1460,467,1460,475.6V604.4z"/>
	<path display="inline" fill="#E03C31" d="M960,360c-99.26,0-180,80.74-180,180s80.74,180,180,180s180-80.74,180-180
		S1059.26,360,960,360z M960,680c-77.18,0-140-62.82-140-140s62.82-140,140-140s140,62.82,140,140S1037.18,680,960,680z"/>
</g>
<g display="none">
	<g display="inline">
		<g>
			<path fill="#FFFFFF" d="M1516.049,645.182v-6.93c0-24.854-20.222-45.075-45.075-45.075h-16.366l-14.066-296.737
				c-0.44-9.306-8.225-16.506-17.656-16.057c-9.308,0.438-16.497,8.346-16.057,17.656l13.988,295.136h-137.866l19.723-416.118
				h98.421l2.927,61.754c0.44,9.308,8.337,16.552,17.656,16.057c9.308-0.438,16.497-8.346,16.057-17.656l-3.607-76.11
				c0.031-0.574,0.033-1.152,0.006-1.731l-3.041-63.33c-0.017-0.33-0.061-0.653-0.094-0.979l-2.643-55.704h4.578
				c9.323,0,16.875-7.555,16.875-16.875s-7.548-16.877-16.871-16.877h-22.271h-117.559h-22.271c-9.323,0-16.875,7.555-16.875,16.875
				s7.555,16.875,16.875,16.875h4.58l-2.639,55.711c-0.033,0.324-0.079,0.645-0.094,0.975l-3.042,63.33
				c-0.027,0.578-0.025,1.156,0.006,1.731l-20.48,432.073h-22.211l-20.482-432.075c0.031-0.574,0.033-1.15,0.006-1.728l-3.042-63.33
				c-0.017-0.33-0.061-0.651-0.094-0.977l-2.643-55.707h4.58c9.323,0,16.875-7.555,16.875-16.875s-7.555-16.877-16.875-16.877
				h-22.271h-117.559h-22.271c-9.323,0-16.875,7.555-16.875,16.875s7.552,16.875,16.875,16.875h4.58l-2.641,55.711
				c-0.033,0.324-0.079,0.645-0.094,0.975l-3.042,63.33c-0.027,0.578-0.025,1.156,0.006,1.731l-20.478,432.073H996.07v-37.641
				c0-6.208-3.409-11.913-8.874-14.859c-5.465-2.945-12.103-2.651-17.291,0.77l-135.394,89.256v-75.17
				c0-6.208-3.409-11.913-8.874-14.859c-5.465-2.945-12.103-2.651-17.291,0.77l-135.394,89.257v-75.168
				c0-6.208-3.409-11.913-8.874-14.859c-5.465-2.945-12.103-2.651-17.291,0.77L485.235,647.944
				c-4.736,3.123-7.588,8.415-7.588,14.091v317.779c-17.656,6.116-30.387,22.868-30.387,42.576v6.93
				c0,24.854,20.221,45.075,45.075,45.075h978.638c24.854,0,45.075-20.221,45.075-45.075v-6.93c0-20.53-13.811-37.863-32.617-43.288
				V688.47C1502.239,683.045,1516.049,665.712,1516.049,645.182z M1309.201,39.355h85.368l1.927,40.618h-89.219L1309.201,39.355z
				 M1305.677,113.726h92.417l1.403,29.58h-95.22L1305.677,113.726z M1081.549,39.355h85.365l1.927,40.618h-89.219L1081.549,39.355z
				 M1078.023,113.726h92.417l1.403,29.58h-95.22L1078.023,113.726z M1075.021,177.056h98.421l19.723,416.118h-137.866
				L1075.021,177.056z M996.064,690.259h289.354c9.323,0,16.875-7.552,16.875-16.875c0-9.323-7.555-16.875-16.875-16.875H996.064
				v-29.58h41.539h173.257h54.398h173.257h32.46c6.244,0,11.325,5.081,11.325,11.325v6.93c0,6.244-5.081,11.325-11.325,11.325
				h-4.417h-123.389c-9.323,0-16.875,7.555-16.875,16.875c0,9.321,7.555,16.875,16.875,16.875h106.512V977.31H996.064V690.259z
				 M834.506,671.127l127.808-84.255v23.177v63.33v303.929H834.506V671.127z M672.949,671.127l127.808-84.255v75.166v315.27H672.949
				V671.127z M511.395,671.127l127.802-84.255v75.166v315.27H511.395V671.127z M1482.301,1029.32h-0.002
				c0,6.244-5.081,11.325-11.324,11.325h-978.64c-6.244,0-11.325-5.081-11.325-11.325v-6.93c0-6.244,5.081-11.325,11.325-11.325
				h2.186h161.554h161.558h161.558h487.368h4.417c6.244,0,11.325,5.081,11.325,11.325L1482.301,1029.32L1482.301,1029.32z"/>
			<path fill="#E03C31" d="M1403.169,720.646h-119.606h-119.606H1044.35c-9.323,0-16.875,7.552-16.875,16.875v96.264v96.264
				c0,9.323,7.555,16.875,16.875,16.875h119.606h119.606h119.606c9.323,0,16.875-7.553,16.875-16.875v-96.264v-96.264
				C1420.044,728.199,1412.492,720.646,1403.169,720.646z M1147.083,913.173h-85.854v-62.512h85.854V913.173z M1147.083,816.909
				h-85.854v-62.512h85.854V816.909z M1266.687,913.173h-85.854v-62.512h85.854V913.173z M1266.691,816.909h-85.854v-62.512h85.854
				V816.909z M1386.296,913.175h-85.854v-62.512h85.854V913.175z M1386.296,816.909h-85.854v-62.512h85.854V816.909z"/>
			<path fill="#E03C31" d="M924.66,720.646h-52.504c-9.323,0-16.875,7.552-16.875,16.875s7.553,16.875,16.875,16.875h52.504
				c9.323,0,16.875-7.553,16.875-16.875C941.535,728.199,933.983,720.646,924.66,720.646z"/>
			<path fill="#FFFFFF" d="M924.66,775.528h-52.504c-9.323,0-16.875,7.553-16.875,16.875c0,9.321,7.553,16.875,16.875,16.875h52.504
				c9.323,0,16.875-7.552,16.875-16.875C941.535,783.081,933.983,775.528,924.66,775.528z"/>
			<path fill="#E03C31" d="M763.101,720.646h-52.498c-9.323,0-16.875,7.552-16.875,16.875s7.557,16.875,16.875,16.875h52.498
				c9.323,0,16.875-7.553,16.875-16.875C779.977,728.199,772.424,720.646,763.101,720.646z"/>
			<path fill="#FFFFFF" d="M763.101,775.528h-52.498c-9.323,0-16.875,7.553-16.875,16.875c0,9.321,7.557,16.875,16.875,16.875
				h52.498c9.323,0,16.875-7.552,16.875-16.875C779.977,783.081,772.424,775.528,763.101,775.528z"/>
			<path fill="#E03C31" d="M601.547,720.646h-52.502c-9.323,0-16.875,7.552-16.875,16.875s7.552,16.875,16.875,16.875h52.504
				c9.323,0,16.875-7.553,16.875-16.875C618.422,728.199,610.87,720.646,601.547,720.646z"/>
			<path fill="#FFFFFF" d="M601.547,775.528h-52.502c-9.323,0-16.875,7.553-16.875,16.875s7.552,16.875,16.875,16.875h52.504
				c9.323,0,16.875-7.552,16.875-16.875S610.87,775.528,601.547,775.528z"/>
		</g>
	</g>
</g>
<g display="none">
	<path display="inline" fill="#FFFFFF" d="M1040.885,529.634c-27.9,0-50.591,22.693-50.591,50.591
		c0,27.895,22.694,50.591,50.591,50.591c27.895,0,50.591-22.698,50.591-50.591C1091.477,552.327,1068.781,529.634,1040.885,529.634z
		 M1040.885,610.367c-16.621,0-30.14-13.524-30.14-30.14c0-16.621,13.519-30.14,30.14-30.14c16.616,0,30.14,13.519,30.14,30.14
		C1071.026,596.843,1057.501,610.367,1040.885,610.367z"/>
	<path display="inline" fill="#FFFFFF" d="M915.857,529.634c-27.895,0-50.591,22.693-50.591,50.591
		c0,27.895,22.698,50.591,50.591,50.591c27.9,0,50.591-22.698,50.591-50.591C966.451,552.327,943.757,529.634,915.857,529.634z
		 M915.857,610.367c-16.621,0-30.14-13.524-30.14-30.14c0-16.621,13.519-30.14,30.14-30.14s30.14,13.519,30.14,30.14
		C946,596.843,932.478,610.367,915.857,610.367z"/>
	<path display="inline" fill="#FFFFFF" d="M790.834,529.634c-27.9,0-50.591,22.693-50.591,50.591
		c0,27.895,22.693,50.591,50.591,50.591c27.895,0,50.586-22.698,50.586-50.591C841.422,552.327,818.729,529.634,790.834,529.634z
		 M790.834,610.367c-16.621,0-30.14-13.524-30.14-30.14c0-16.621,13.519-30.14,30.14-30.14c16.616,0,30.135,13.519,30.135,30.14
		C820.971,596.843,807.452,610.367,790.834,610.367z"/>
	<path display="inline" fill="#E03C31" d="M1040.885,653.173c-27.9,0-50.591,22.698-50.591,50.596
		c0,27.895,22.694,50.591,50.591,50.591c27.895,0,50.591-22.698,50.591-50.596C1091.477,675.869,1068.781,653.173,1040.885,653.173z
		 M1040.885,733.909c-16.621,0-30.14-13.524-30.14-30.14c0-16.621,13.519-30.145,30.14-30.145c16.616,0,30.14,13.524,30.14,30.14
		C1071.026,720.385,1057.501,733.909,1040.885,733.909z"/>
	<path display="inline" fill="#E03C31" d="M915.857,653.173c-27.895,0-50.591,22.698-50.591,50.596
		c0,27.895,22.698,50.591,50.591,50.591c27.9,0,50.591-22.698,50.591-50.596C966.451,675.869,943.757,653.173,915.857,653.173z
		 M915.857,733.909c-16.621,0-30.14-13.524-30.14-30.14c0-16.621,13.519-30.145,30.14-30.145s30.14,13.524,30.14,30.14
		C946,720.385,932.478,733.909,915.857,733.909z"/>
	<path display="inline" fill="#E03C31" d="M790.834,653.173c-27.9,0-50.591,22.698-50.591,50.596
		c0,27.895,22.693,50.591,50.591,50.591c27.895,0,50.586-22.698,50.586-50.596C841.422,675.869,818.729,653.173,790.834,653.173z
		 M790.834,733.909c-16.621,0-30.14-13.524-30.14-30.14c0-16.621,13.519-30.145,30.14-30.145c16.616,0,30.135,13.524,30.135,30.14
		C820.971,720.385,807.452,733.909,790.834,733.909z"/>
	<path display="inline" fill="#FFFFFF" d="M1469.579,705.436V586.591c0-5.649-4.576-10.226-10.225-10.226h-301.358
		c-5.649,0-10.226,4.576-10.226,10.226v118.845c0,5.649,4.576,10.226,10.226,10.226h301.358
		C1465.003,715.662,1469.579,711.085,1469.579,705.436z M1449.128,695.211h-280.906v-98.394h280.907L1449.128,695.211
		L1449.128,695.211z"/>
	<path display="inline" fill="#FFFFFF" d="M902.003,972.246h117.447c5.649,0,10.226-4.576,10.226-10.226
		s-4.576-10.226-10.226-10.226H902.003c-5.649,0-10.226,4.576-10.226,10.226S896.356,972.246,902.003,972.246z"/>
	<path display="inline" fill="#FFFFFF" d="M1472.233,312.318h-27.9V232.14c0-47.678-38.787-86.467-86.467-86.467h-13.481V24.456
		c0-5.649-4.576-10.226-10.226-10.226H794.034c-5.649,0-10.226,4.576-10.226,10.226v121.217h-13.483
		c-47.677,0-86.467,38.787-86.467,86.467v80.178h-13.267c-3.318-9.379-8.717-17.995-15.988-25.258
		c-12.774-12.774-29.7-19.806-47.661-19.806H472.076c-37.199-0.002-67.467,30.26-67.467,67.46v542.117
		c-0.005,17.961,7.03,34.882,19.804,47.661c12.774,12.773,29.7,19.806,47.661,19.806l134.879-0.005
		c29.346,0,54.366-18.839,63.627-45.057h113.234v158.648c0,5.649,4.576,10.225,10.226,10.225h540.125
		c5.649,0,10.225-4.576,10.225-10.225V899.235h127.848c47.675,0,86.463-38.787,86.463-86.467v-413.99
		C1558.695,351.105,1519.908,312.318,1472.233,312.318z M653.965,876.833c0,25.92-21.091,47.011-47.016,47.011l-134.879,0.005
		c-12.494,0-24.286-4.906-33.196-13.82c-8.909-8.909-13.815-20.699-13.815-33.196v-542.12c0-25.92,21.091-47.011,47.016-47.011
		h11.109v286.873c0,5.649,4.576,10.226,10.226,10.226c5.649,0,10.226-4.576,10.226-10.226V287.702h103.314
		c12.499,0,24.291,4.906,33.201,13.82c8.914,8.909,13.82,20.697,13.82,33.191L653.965,876.833z M1357.868,166.124
		c36.401,0,66.016,29.616,66.016,66.016v8.373h-35.849c-5.649,0-10.226,4.576-10.226,10.226s4.576,10.226,10.226,10.226h35.849
		v51.354h-44.374c-5.649,0-10.226,4.576-10.226,10.226v27.007c0,20.865-9.737,39.483-24.897,51.587V166.124H1357.868z
		 M1323.936,34.681v377.556c-6.508,2.149-13.45,3.332-20.672,3.332H824.932c-7.218,0-14.164-1.184-20.672-3.332V122.849h244.939
		c5.649,0,10.225-4.576,10.225-10.226s-4.576-10.226-10.225-10.226H804.259V34.681H1323.936z M704.311,232.14
		c0-36.401,29.616-66.016,66.016-66.016h13.483v235.019c-15.155-12.105-24.893-30.725-24.893-51.587v-27.012
		c0-5.649-4.576-10.226-10.226-10.226h-44.379V232.14H704.311z M1323.936,951.795h-220.001c-5.649,0-10.225,4.576-10.225,10.226
		s4.576,10.226,10.225,10.226h220.001v75.414H804.262V899.238h519.674V951.795z M1472.233,878.787H674.388
		c0.019-0.654,0.029-1.306,0.029-1.956l0.005-542.118c0-0.65-0.01-1.297-0.029-1.946h64.074v16.787
		c0,47.678,38.787,86.467,86.467,86.467h478.332c47.677,0,86.47-38.792,86.47-86.47v-16.782h82.5
		c36.401,0,66.011,29.611,66.011,66.011v413.993c0,0.113-0.005,0.221-0.01,0.334h-140.179c-5.649,0-10.226,4.576-10.226,10.226
		s4.576,10.226,10.226,10.226h136.818C1526.144,859.803,1501.37,878.787,1472.233,878.787z"/>
	<path display="inline" fill="#FFFFFF" d="M493.41,622.097c-5.649,0-10.226,4.576-10.226,10.226v129.925
		c0,5.649,4.576,10.226,10.226,10.226c5.649,0,10.226-4.576,10.226-10.226V632.322C503.635,626.673,499.059,622.097,493.41,622.097z
		"/>
</g>
<g display="none">
	<g display="inline">
		<g>
			<path fill="#FFFFFF" d="M572.234,1031.72H434.771v-71.481c0-3.032,2.467-5.499,5.499-5.499c9.111,0,16.495-7.384,16.495-16.495
				c0-9.113-7.386-16.495-16.495-16.495c-21.223,0-38.489,17.268-38.489,38.489v71.481h-27.493c-9.109,0-16.495,7.382-16.495,16.495
				c0,9.113,7.386,16.495,16.495,16.495h197.944c9.111,0,16.495-7.382,16.495-16.495
				C588.729,1039.102,581.343,1031.72,572.234,1031.72z"/>
			<path fill="#E03C31" d="M682.202,717.207c-49.118,0-89.076,39.958-89.076,89.076c0,49.118,39.958,89.076,89.076,89.076
				s89.076-39.958,89.076-89.076C771.278,757.165,731.32,717.207,682.202,717.207z M682.202,862.367
				c-30.925,0-56.084-25.159-56.084-56.084s25.159-56.084,56.084-56.084s56.084,25.159,56.084,56.084
				C738.288,837.208,713.129,862.367,682.202,862.367z"/>
			<path fill="#FFFFFF" d="M854.365,999.591l21.153-21.155c12.928-12.926,14.952-33.351,4.809-48.567l-25.581-38.371
				c3.754-7.594,7.007-15.444,9.725-23.473l45.222-9.043c17.927-3.585,30.941-19.458,30.941-37.742v-29.921
				c0-18.284-13.012-34.157-30.939-37.742l-45.222-9.043c-3.82-11.276-8.686-22.19-14.522-32.553
				c-4.471-7.935-14.532-10.747-22.467-6.276c-7.937,4.471-10.749,14.532-6.276,22.469c6.217,11.039,11.104,22.835,14.524,35.059
				c1.671,5.979,6.56,10.51,12.649,11.728l54.841,10.967c2.561,0.51,4.418,2.777,4.418,5.391v29.921c0,2.61-1.859,4.881-4.422,5.391
				l-54.841,10.967c-6.087,1.218-10.976,5.752-12.649,11.728c-3.42,12.222-8.307,24.018-14.524,35.059
				c-3.05,5.413-2.799,12.077,0.647,17.246l31.025,46.537c1.447,2.173,1.159,5.091-0.688,6.94l-21.153,21.155
				c-1.845,1.845-4.762,2.136-6.94,0.688l-46.539-31.025c-5.168-3.446-11.833-3.695-17.246-0.649
				c-11.045,6.221-22.841,11.106-35.057,14.524c-5.981,1.673-10.512,6.56-11.733,12.651l-10.967,54.841
				c-0.512,2.561-2.779,4.422-5.393,4.422H667.24c-2.614,0-4.881-1.861-5.393-4.422l-10.967-54.841
				c-1.218-6.091-5.752-10.978-11.733-12.651c-12.216-3.416-24.01-8.303-35.057-14.524c-5.413-3.046-12.079-2.797-17.246,0.649
				l-46.537,31.025c-2.173,1.449-5.091,1.159-6.938-0.686l-21.157-21.159c-1.845-1.845-2.134-4.764-0.686-6.938l31.025-46.537
				c3.444-5.168,3.695-11.833,0.647-17.246c-6.217-11.039-11.104-22.835-14.524-35.059c-1.671-5.978-6.56-10.51-12.649-11.728
				l-54.841-10.967c-2.561-0.51-4.42-2.777-4.42-5.391v-29.921c0-2.61,1.859-4.881,4.422-5.391l54.841-10.967
				c6.087-1.218,10.976-5.752,12.649-11.728c3.42-12.222,8.307-24.018,14.524-35.059c3.05-5.413,2.799-12.077-0.647-17.246
				l-31.025-46.537c-1.447-2.173-1.159-5.091,0.688-6.94l21.153-21.155c1.845-1.843,4.762-2.136,6.94-0.688l46.539,31.025
				c5.166,3.446,11.833,3.695,17.246,0.649c11.045-6.221,22.841-11.106,35.057-14.524c5.981-1.673,10.512-6.56,11.733-12.651
				l10.967-54.841c0.512-2.561,2.779-4.422,5.393-4.422h29.921c2.614,0,4.881,1.861,5.393,4.422l10.967,54.841
				c1.218,6.091,5.752,10.978,11.733,12.651c12.216,3.416,24.01,8.303,35.057,14.524c5.413,3.046,12.077,2.797,17.246-0.649
				l46.541-31.025c2.173-1.451,5.093-1.155,6.94,0.688c6.44,6.44,16.885,6.442,23.326-0.002c6.442-6.44,6.44-16.885-0.002-23.326
				c-11.963-11.963-30.337-14.587-45.067-6.88l-10.963-350.853c-0.655-20.911-17.554-37.287-38.473-37.287H704.2
				c-9.111,0-16.495,7.382-16.495,16.495c0,9.113,7.386,16.495,16.495,16.495h55.661c2.989,0,5.403,2.34,5.497,5.328l11.598,371.123
				l-9.531,6.354c-7.597-3.754-15.444-7.007-23.471-9.725l-9.043-45.218c-3.587-17.929-19.46-30.941-37.744-30.941h-29.921
				c-18.284,0-34.157,13.012-37.744,30.941l-9.043,45.218c-8.027,2.718-15.875,5.972-23.471,9.725l-9.531-6.354l11.598-371.123
				c0.092-2.989,2.508-5.328,5.497-5.328h33.667c9.111,0,16.495-7.382,16.495-16.495s-7.386-16.495-16.495-16.495h-33.667
				c-20.917,0-37.814,16.377-38.466,37.289l-10.963,350.853c-14.728-7.703-33.104-5.079-45.069,6.882l-21.159,21.153
				c-12.928,12.926-14.952,33.351-4.809,48.567l25.581,38.371c-3.754,7.594-7.007,15.444-9.725,23.473l-45.222,9.043
				c-17.927,3.585-30.941,19.458-30.941,37.742v29.921c0,18.284,13.014,34.157,30.937,37.742l45.222,9.043
				c2.718,8.031,5.97,15.879,9.725,23.473l-25.583,38.371c-10.139,15.216-8.115,35.641,4.809,48.565l21.157,21.159
				c12.926,12.926,33.351,14.948,48.565,4.807l38.373-25.581c7.597,3.754,15.444,7.007,23.471,9.725l9.043,45.218
				c3.587,17.929,19.46,30.941,37.744,30.941h29.921c18.284,0,34.157-13.012,37.744-30.941l9.043-45.218
				c8.027-2.718,15.875-5.97,23.471-9.725l38.373,25.581C821.004,1014.545,841.431,1012.527,854.365,999.591z"/>
			<path fill="#FFFFFF" d="M1386.008,1031.72h-27.493v-71.481c0-15.326-9-28.585-21.994-34.775V696.313
				c0-9.113-7.386-16.495-16.495-16.495c-9.111,0-16.495,7.384-16.495,16.495V921.75H946.13c-9.111,0-16.495,7.382-16.495,16.495
				c0,9.113,7.386,16.495,16.495,16.495h373.896c3.03,0,5.499,2.465,5.499,5.499v71.481H792.172
				c-9.111,0-16.495,7.384-16.495,16.495c0,9.113,7.386,16.495,16.495,16.495h593.836c9.111,0,16.495-7.382,16.495-16.495
				C1402.503,1039.102,1395.117,1031.72,1386.008,1031.72z"/>
			<path fill="#FFFFFF" d="M1342.02,107.976h-219.94c-9.111,0-16.495,7.384-16.495,16.495s7.386,16.495,16.495,16.495h219.938
				c15.161,0,27.493,12.332,27.493,27.493v21.994c0,15.161-12.333,27.493-27.493,27.493H924.134
				c-15.161,0-27.493-12.332-27.493-27.493V162.96h49.487c9.111,0,16.495-7.382,16.495-16.495s-7.386-16.495-16.495-16.495h-461.87
				c-15.161,0-27.493-12.332-27.493-27.493V80.483c0-15.161,12.332-27.493,27.493-27.493h791.78c9.788,0,18.915,5.27,23.824,13.757
				c4.564,7.886,14.652,10.58,22.539,6.019c7.884-4.562,10.582-14.652,6.019-22.537C1317.635,31.584,1297.563,20,1276.038,20
				h-791.78c-33.351,0-60.483,27.134-60.483,60.483v21.994c0,33.349,27.132,60.483,60.483,60.483h379.395v27.493
				c0,33.349,27.132,60.483,60.483,60.483h417.884c33.351,0,60.483-27.134,60.483-60.483v-21.994
				C1402.503,135.11,1375.371,107.976,1342.02,107.976z"/>
			<path fill="#FFFFFF" d="M1320.026,646.826c9.111,0,16.495-7.382,16.495-16.495v-87.976c0-9.113-7.386-16.495-16.495-16.495
				h-87.976c-2.098,0-4.177,0.4-6.127,1.179l-57.216,22.888l-7.391-206.887c-0.741-20.813-17.64-37.118-38.464-37.118H1056.1
				c-9.111,0-16.495,7.382-16.495,16.495s7.386,16.495,16.495,16.495h66.753c2.975,0,5.389,2.328,5.497,5.303l7.813,218.732
				l-42.201,16.879c-8.46,3.385-12.571,12.983-9.188,21.441c3.383,8.46,12.977,12.575,21.441,9.192l129.011-51.607h68.304v71.481
				C1303.531,639.443,1310.915,646.826,1320.026,646.826z"/>
			<path fill="#FFFFFF" d="M967.351,338.912h22.763c9.111,0,16.495-7.382,16.495-16.495s-7.386-16.495-16.495-16.495h-22.763
				c-20.827,0-37.722,16.303-38.465,37.118l-10.974,307.206l-43.896,17.556c-8.46,3.385-12.571,12.983-9.188,21.441
				c2.579,6.45,8.774,10.374,15.322,10.374c2.038,0,4.114-0.38,6.121-1.183l153.958-61.583c8.46-3.385,12.571-12.983,9.188-21.441
				c-3.383-8.46-12.979-12.575-21.441-9.192l-76.572,30.631l10.449-292.633C961.964,341.24,964.376,338.912,967.351,338.912z"/>
		</g>
	</g>
</g>
<g>
	<g>
		<g>
			<path fill="#FFFFFF" d="M940.461,397.456v90.541c0,9.375,7.599,16.976,16.976,16.976s16.976-7.601,16.976-16.976v-90.541
				c0-9.375-7.599-16.976-16.976-16.976S940.461,388.081,940.461,397.456z"/>
			<path fill="#FFFFFF" d="M849.92,397.456v90.541c0,9.375,7.601,16.976,16.976,16.976c9.375,0,16.976-7.601,16.976-16.976v-90.541
				c0-9.375-7.601-16.976-16.976-16.976S849.92,388.081,849.92,397.456z"/>
			<path fill="#FFFFFF" d="M1031.002,397.456v90.541c0,9.375,7.599,16.976,16.976,16.976c9.378,0,16.976-7.601,16.976-16.976
				v-90.541c0-9.375-7.599-16.976-16.976-16.976C1038.6,380.48,1031.002,388.081,1031.002,397.456z"/>
			<circle fill="#FFFFFF" cx="1145.121" cy="838.841" r="16.976"/>
			<circle fill="#FFFFFF" cx="1226.23" cy="838.841" r="16.976"/>
			<path fill="#E03C31" d="M1328.088,787.912c-28.081,0-50.929,22.846-50.929,50.929c0,28.083,22.848,50.929,50.929,50.929
				s50.929-22.846,50.929-50.929C1379.017,810.758,1356.171,787.912,1328.088,787.912z M1328.088,855.818
				c-9.362,0-16.976-7.615-16.976-16.976c0-9.362,7.614-16.976,16.976-16.976c9.362,0,16.976,7.615,16.976,16.976
				C1345.064,848.203,1337.45,855.818,1328.088,855.818z"/>
			<path fill="#FFFFFF" d="M1359.211,538.926h-860.28c0.079-0.946,0.145-1.897,0.145-2.866c0-6.252-1.729-12.096-4.69-17.133
				l753.528-435.05c8.119-4.688,10.901-15.07,6.213-23.19C1235.008,27.571,1199.23,7,1160.755,7
				c-18.755,0-37.255,4.957-53.498,14.335L411.365,423.109c-8.119,4.688-10.901,15.07-6.213,23.19l37.282,64.576
				c-6.897,6.218-11.263,15.19-11.263,25.186c0,12.535,6.845,23.477,16.976,29.358v397.914c0,9.375,7.601,16.976,16.976,16.976
				h16.976v73.564c0,9.375,7.601,16.976,16.976,16.976h916.723c9.378,0,16.976-7.601,16.976-16.976v-73.564h16.976
				c9.378,0,16.976-7.601,16.976-16.976V646.44C1466.728,587.157,1418.497,538.926,1359.211,538.926z M471.336,493.031
				l-28.294-49.007l681.193-393.286c11.087-6.401,23.717-9.785,36.522-9.785c20.555,0,39.974,8.538,53.731,23.02L471.336,493.031z
				 M1432.775,946.358H657.522c-9.375,0-16.976,7.601-16.976,16.976s7.601,16.976,16.976,16.976h741.301v56.588h-882.77v-56.588
				h73.564c9.375,0,16.976-7.601,16.976-16.976s-7.601-16.976-16.976-16.976H482.099v-373.48h877.112
				c40.564,0,73.564,33.002,73.564,73.564V946.358z"/>
		</g>
	</g>
</g>
</svg>
