<?xml version="1.0" encoding="utf-8"?>
<!-- Generator: Adobe Illustrator 16.0.0, SVG Export Plug-In . SVG Version: 6.00 Build 0)  -->
<!DOCTYPE svg PUBLIC "-//W3C//DTD SVG 1.1//EN" "http://www.w3.org/Graphics/SVG/1.1/DTD/svg11.dtd">
<svg version="1.1" id="Capa_1" xmlns="http://www.w3.org/2000/svg" xmlns:xlink="http://www.w3.org/1999/xlink" x="0px" y="0px"
	 width="1920px" height="1080px" viewBox="0 0 1920 1080" enable-background="new 0 0 1920 1080" xml:space="preserve">
<g>
	<path fill="#FFFFFF" d="M1444.4,420h-101.04c-16.24,0-29.62-8.94-35.841-23.94c-6.22-15-3.06-30.8,8.4-42.279l71.439-71.42
		c10.501-10.5,16.28-24.48,16.28-39.32c0-14.86-5.78-28.82-16.28-39.34l-91.06-91.06c-21-21-57.62-21.04-78.66,0l-71.42,71.42
		c-11.479,11.46-27.319,14.66-42.28,8.42c-15-6.22-23.939-19.6-23.939-35.84V55.6c0-30.66-24.939-55.6-55.6-55.6H895.6
		C864.939,0,840,24.94,840,55.6v101.04c0,16.24-8.939,29.62-23.939,35.84c-14.961,6.26-30.801,3.04-42.28-8.42l-71.42-71.42
		c-21.04-21.04-57.66-21-78.66,0L532.64,203.7c-10.5,10.5-16.279,24.48-16.279,39.34c0,14.84,5.779,28.8,16.279,39.32l71.44,71.42
		c11.46,11.479,14.6,27.279,8.4,42.279c-6.2,15-19.601,23.94-35.841,23.94H475.6c-30.659,0-55.6,24.94-55.6,55.6v128.78
		c0,30.68,24.94,55.62,55.6,55.62h101.04c16.24,0,29.62,8.939,35.841,23.939c6.22,15,3.06,30.801-8.4,42.28l-71.44,71.42
		c-10.5,10.5-16.279,24.48-16.279,39.32c0,14.86,5.779,28.82,16.279,39.34L623.7,967.36c21.02,21.02,57.62,21.06,78.66,0
		l71.42-71.44c11.479-11.46,27.26-14.62,42.28-8.4c15,6.221,23.939,19.601,23.939,35.841v101.04c0,30.66,24.939,55.6,55.6,55.6
		h128.78c30.66,0,55.601-24.94,55.601-55.6V923.36c0-16.24,8.939-29.62,23.939-35.841c15.02-6.239,30.8-3.06,42.28,8.4l71.42,71.44
		c21.04,21.04,57.66,21,78.66,0l91.06-91.061c10.5-10.5,16.28-24.479,16.28-39.34c0-14.84-5.78-28.8-16.28-39.32l-71.439-71.42
		c-11.461-11.479-14.601-27.28-8.4-42.28S1327.12,660,1343.36,660h101.04c30.66,0,55.6-24.94,55.6-55.6V475.6
		C1500,444.94,1475.06,420,1444.4,420z M1460,604.4c0,8.6-7,15.6-15.6,15.6h-101.04c-32.48,0-60.38,18.64-72.8,48.64
		c-12.44,30-5.9,62.92,17.079,85.88l71.44,71.42c6.1,6.101,6.1,16,0,22.08l-91.061,91.061c-6.08,6.08-15.979,6.12-22.08,0
		l-71.42-71.44c-22.979-22.979-55.88-29.479-85.88-17.08c-30,12.421-48.64,40.32-48.64,72.801v101.04c0,8.6-7,15.6-15.6,15.6H895.6
		c-8.6,0-15.6-7-15.6-15.6V923.36c0-32.48-18.64-60.38-48.64-72.801c-10.061-4.18-20.421-6.22-30.66-6.22
		c-20.28,0-39.94,8-55.22,23.28l-71.42,71.439c-6.121,6.12-16.021,6.08-22.08,0L560.92,848c-6.1-6.1-6.1-16,0-22.08l71.44-71.42
		c22.96-22.96,29.52-55.88,17.079-85.88C637.02,638.64,609.12,620,576.64,620H475.6c-8.6,0-15.6-7-15.6-15.6V475.6
		c0-8.6,7-15.6,15.6-15.6h101.04c32.48,0,60.38-18.64,72.8-48.64c12.44-30,5.9-62.92-17.079-85.88l-71.44-71.42
		c-6.1-6.1-6.1-16,0-22.08l91.061-91.06c6.08-6.1,15.979-6.1,22.08,0l71.42,71.42c22.939,22.94,55.84,29.52,85.88,17.08
		c30-12.4,48.64-40.3,48.64-72.78V55.6c0-8.6,7-15.6,15.6-15.6h128.78c8.62,0,15.62,7,15.62,15.6v101.04
		c0,32.48,18.64,60.38,48.64,72.8c30.04,12.44,62.921,5.88,85.88-17.08l71.42-71.42c6.12-6.1,16.021-6.1,22.08,0L1359.08,232
		c6.1,6.1,6.1,16,0,22.08l-71.44,71.42c-22.96,22.96-29.52,55.88-17.079,85.88c12.42,30,40.319,48.64,72.8,48.64h101.04
		C1453,460,1460,467,1460,475.6V604.4z"/>
	<path fill="#E03C31" d="M960,360c-99.26,0-180,80.74-180,180s80.74,180,180,180s180-80.74,180-180S1059.26,360,960,360z M960,680
		c-77.18,0-140-62.82-140-140s62.82-140,140-140s140,62.82,140,140S1037.18,680,960,680z"/>
</g>
</svg>
